<svg xmlns="http://www.w3.org/2000/svg" version="1.1" xmlns:xlink="http://www.w3.org/1999/xlink" xmlns:svgjs="http://svgjs.dev/svgjs" width="1500" height="1500" viewBox="0 0 1500 1500"><rect width="1500" height="1500" fill="#172842"></rect><g transform="matrix(0.6666666666666666,0,0,0.6666666666666666,249.39393939393938,438.5856950067477)"><svg viewBox="0 0 396 247" data-background-color="#172842" preserveAspectRatio="xMidYMid meet" height="935" width="1500" xmlns="http://www.w3.org/2000/svg" xmlns:xlink="http://www.w3.org/1999/xlink"><g id="tight-bounds" transform="matrix(1,0,0,1,0.2400000000000091,-0.09999999999999432)"><svg viewBox="0 0 395.52 247.2" height="247.2" width="395.52"><g><svg></svg></g><g><svg viewBox="0 0 395.52 247.2" height="247.2" width="395.52"><g><path d="M55.039 247.2l61.145-105.906 0 3.473-58.082 100.601h279.316l-58.082-100.601 0-3.473 61.145 105.906zM197.76 0l26.403 45.732-2.005 0-24.398-42.259-24.398 42.259-2.005 0z" fill="#fffafe" fill-rule="nonzero" stroke="none" stroke-width="1" stroke-linecap="butt" stroke-linejoin="miter" stroke-miterlimit="10" stroke-dasharray="" stroke-dashoffset="0" font-family="none" font-weight="none" font-size="none" text-anchor="none" style="mix-blend-mode: normal" data-fill-palette-color="tertiary"></path></g><g transform="matrix(1,0,0,1,138.4319678202699,67.97999999999999)"><svg viewBox="0 0 118.65606435946019 111.24" height="111.24" width="118.65606435946019"><g><svg viewBox="0 0 395.52 370.79979887679593" height="111.24" width="118.65606435946019"><g transform="matrix(1,0,0,1,0,272.76396015820455)"><svg viewBox="0 0 395.52 98.03583871859138" height="98.03583871859138" width="395.52"><g id="textblocktransform"><svg viewBox="0 0 395.52 98.03583871859138" height="98.03583871859138" width="395.52" id="textblock"><g><svg viewBox="0 0 395.52 98.03583871859138" height="98.03583871859138" width="395.52"><g transform="matrix(1,0,0,1,0,0)"><svg width="395.52" viewBox="2.05 -31.86 130.79361702127656 32.42" height="98.03583871859138" data-palette-color="#fffafe"><path d="M27.1-31.86L24.8-21.09 21.95-21.09 23.66-29 16.8-29 11.25-2.86 16.41-2.86 15.8 0 2.15 0 2.76-2.86 7.91-2.86 13.45-29 6.59-29 4.91-21.09 2.05-21.09 4.35-31.86 27.1-31.86ZM50.63-11.3L50.63-11.3Q50.05-8.64 48.74-6.47 47.43-4.3 45.54-2.75 43.65-1.2 41.25-0.32 38.84 0.56 36.13 0.56L36.13 0.56Q33.49 0.56 31.49-0.32 29.49-1.2 28.24-2.75 27-4.3 26.6-6.47 26.19-8.64 26.8-11.3L26.8-11.3Q27.34-13.89 28.67-16.13 30-18.36 31.89-19.93 33.79-21.51 36.19-22.4 38.6-23.29 41.23-23.29L41.23-23.29Q43.94-23.29 45.94-22.4 47.95-21.51 49.19-19.93 50.44-18.36 50.82-16.13 51.19-13.89 50.63-11.3ZM47.29-11.3L47.29-11.3Q47.7-13.26 47.47-14.9 47.24-16.55 46.36-17.8 45.48-19.04 44.04-19.75 42.6-20.46 40.6-20.46L40.6-20.46Q38.6-20.46 36.84-19.75 35.08-19.04 33.74-17.8 32.39-16.55 31.47-14.9 30.54-13.26 30.15-11.3L30.15-11.3Q29.68-9.35 29.92-7.7 30.15-6.05 30.99-4.86 31.83-3.66 33.29-2.98 34.74-2.29 36.74-2.29L36.74-2.29Q38.74-2.29 40.49-2.98 42.23-3.66 43.61-4.86 44.99-6.05 45.92-7.7 46.85-9.35 47.29-11.3ZM106.63-15.89L106.63-15.89Q105.93-12.7 104.66-9.8 103.39-6.91 101.43-4.72 99.48-2.54 96.9-1.27 94.33 0 91.03 0L91.03 0 80.68 0 87.42-31.86 97.77-31.86Q101.02-31.86 103.07-30.55 105.12-29.25 106.12-27.05 107.12-24.85 107.22-21.97 107.32-19.09 106.63-15.89ZM103.29-15.89L103.29-15.89Q104.63-22.14 103.01-25.57 101.38-29 97.18-29L97.18-29 90.18-29 84.64-2.86 91.62-2.86Q95.82-2.86 98.89-6.25 101.97-9.64 103.29-15.89ZM132.51-11.3L132.51-11.3Q131.92-8.64 130.62-6.47 129.31-4.3 127.42-2.75 125.53-1.2 123.12-0.32 120.72 0.56 118.01 0.56L118.01 0.56Q115.37 0.56 113.37-0.32 111.37-1.2 110.12-2.75 108.88-4.3 108.47-6.47 108.07-8.64 108.68-11.3L108.68-11.3Q109.22-13.89 110.55-16.13 111.88-18.36 113.77-19.93 115.66-21.51 118.07-22.4 120.47-23.29 123.11-23.29L123.11-23.29Q125.82-23.29 127.82-22.4 129.82-21.51 131.07-19.93 132.31-18.36 132.69-16.13 133.07-13.89 132.51-11.3ZM129.16-11.3L129.16-11.3Q129.58-13.26 129.35-14.9 129.12-16.55 128.24-17.8 127.36-19.04 125.92-19.75 124.48-20.46 122.48-20.46L122.48-20.46Q120.47-20.46 118.72-19.75 116.96-19.04 115.62-17.8 114.27-16.55 113.34-14.9 112.42-13.26 112.03-11.3L112.03-11.3Q111.56-9.35 111.79-7.7 112.03-6.05 112.87-4.86 113.71-3.66 115.16-2.98 116.62-2.29 118.62-2.29L118.62-2.29Q120.62-2.29 122.37-2.98 124.11-3.66 125.49-4.86 126.87-6.05 127.8-7.7 128.73-9.35 129.16-11.3Z" opacity="1" transform="matrix(1,0,0,1,0,0)" fill="#fffafe" class="wordmark-text-0" data-fill-palette-color="primary" id="text-0"></path></svg></g></svg></g></svg></g></svg></g><g transform="matrix(1,0,0,1,84.5219285822279,0)"><svg viewBox="0 0 226.47614283554418 226.47614283554418" height="226.47614283554418" width="226.47614283554418"><g><svg></svg></g><g id="icon-0"><svg viewBox="0 0 226.47614283554418 226.47614283554418" height="226.47614283554418" width="226.47614283554418"><g><path d="M0 113.238c0-62.54 50.698-113.238 113.238-113.238 62.54 0 113.238 50.698 113.238 113.238 0 62.54-50.698 113.238-113.238 113.238-62.54 0-113.238-50.698-113.238-113.238zM113.238 217.635c57.657 0 104.397-46.74 104.397-104.397 0-57.657-46.74-104.397-104.397-104.397-57.657 0-104.397 46.74-104.397 104.397 0 57.657 46.74 104.397 104.397 104.397z" data-fill-palette-color="tertiary" fill="#fffafe" stroke="transparent"></path></g><g transform="matrix(1,0,0,1,48.49239971933872,48.58961544261)"><svg viewBox="0 0 129.49134339686674 129.2969119503242" height="129.2969119503242" width="129.49134339686674"><g><svg xmlns="http://www.w3.org/2000/svg" xmlns:xlink="http://www.w3.org/1999/xlink" version="1.1" x="0" y="0" viewBox="-2932.3 1467.8 66.60000000000036 66.5" style="enable-background:new -2949 1451 100 100;" xml:space="preserve" height="129.2969119503242" width="129.49134339686674" class="icon-dxe-0" data-fill-palette-color="accent" id="dxe-0"><g fill="#fffafe" data-fill-palette-color="accent"><path d="M-2899.6 1467.8H-2898.2C-2893.9 1467.9-2889.6 1468.8-2885.6 1470.6-2880.2 1473-2875.4 1476.8-2872 1481.6-2868 1487.1-2865.7 1493.9-2865.7 1500.7V1501.9C-2865.8 1505.4-2866.4 1508.8-2867.6 1512.1-2869.3 1516.9-2872.1 1521.3-2875.8 1524.9-2879.4 1528.5-2883.9 1531.2-2888.7 1532.7-2891.8 1533.7-2895 1534.2-2898.3 1534.3H-2899.7C-2903.2 1534.2-2906.7 1533.6-2910.1 1532.4-2915.9 1530.4-2921.1 1526.7-2925 1521.9-2929.1 1516.9-2931.6 1510.6-2932.2 1504.2-2932.3 1503.4-2932.3 1502.6-2932.3 1501.8V1500.4C-2932.2 1496.1-2931.3 1491.8-2929.6 1487.9-2927.7 1483.5-2924.8 1479.5-2921.1 1476.2-2917.9 1473.3-2914.1 1471.1-2910 1469.7-2906.5 1468.4-2903.1 1467.8-2899.6 1467.8M-2899.8 1472.3C-2904.4 1472.4-2908.9 1473.7-2912.9 1475.9-2918.9 1479.2-2923.6 1484.8-2925.8 1491.2-2927.9 1497.1-2928 1503.6-2926.1 1509.6-2925.1 1512.7-2923.5 1515.7-2921.5 1518.2-2917.6 1523.3-2911.8 1527.1-2905.5 1528.6-2901.5 1529.6-2897.3 1529.6-2893.3 1528.8-2889.7 1528.1-2886.2 1526.7-2883.2 1524.6-2877.8 1521.1-2873.7 1515.7-2871.7 1509.6-2869.4 1502.6-2870 1494.8-2873.2 1488.2-2875.9 1482.6-2880.6 1477.9-2886.2 1475.1-2890.4 1473.2-2895.1 1472.2-2899.8 1472.3" fill="#fffafe" data-fill-palette-color="accent"></path><path d="M-2911.7 1485C-2911 1484.8-2910.1 1485.2-2909.8 1485.9-2909.5 1486.5-2909.7 1487.3-2910.3 1487.7-2910.8 1488.1-2911.5 1488.1-2912.1 1487.8-2912.6 1487.5-2912.9 1486.8-2912.8 1486.2S-2912.3 1485.1-2911.7 1485" fill="#fffafe" data-fill-palette-color="accent"></path><path d="M-2904.5 1485.3H-2887.4C-2886.9 1485.3-2886.4 1485.5-2886.1 1485.9-2885.7 1486.3-2885.6 1487-2885.9 1487.5-2886.1 1488.1-2886.7 1488.4-2887.3 1488.4H-2904.3C-2904.8 1488.4-2905.3 1488.1-2905.6 1487.7S-2906 1486.6-2905.7 1486.1C-2905.5 1485.8-2905 1485.4-2904.5 1485.3" fill="#fffafe" data-fill-palette-color="accent"></path><path d="M-2911.7 1494.2C-2911.1 1494-2910.5 1494.2-2910.1 1494.7S-2909.6 1495.9-2909.9 1496.4C-2910.2 1497-2911 1497.4-2911.7 1497.1-2912.4 1496.9-2912.8 1496.2-2912.8 1495.5-2912.8 1495-2912.3 1494.4-2911.7 1494.2" fill="#fffafe" data-fill-palette-color="accent"></path><path d="M-2904.8 1494.6C-2904.5 1494.5-2904.2 1494.5-2903.9 1494.5H-2887.4C-2886.8 1494.5-2886.2 1494.8-2886 1495.4-2885.8 1495.9-2885.8 1496.5-2886.1 1497-2886.4 1497.4-2886.9 1497.7-2887.4 1497.7H-2903.9C-2904.2 1497.7-2904.6 1497.7-2904.9 1497.6-2905.5 1497.4-2905.9 1496.7-2905.9 1496.1-2905.9 1495.4-2905.4 1494.8-2904.8 1494.6" fill="#fffafe" data-fill-palette-color="accent"></path><path d="M-2911.7 1503.5C-2911.2 1503.4-2910.6 1503.5-2910.2 1503.8-2909.8 1504.2-2909.6 1504.8-2909.7 1505.3S-2910.2 1506.2-2910.7 1506.4-2911.7 1506.5-2912.2 1506.2-2912.9 1505.2-2912.8 1504.7C-2912.7 1504.1-2912.3 1503.8-2911.7 1503.5" fill="#fffafe" data-fill-palette-color="accent"></path><path d="M-2904.7 1503.9C-2904.5 1503.8-2904.3 1503.9-2904.1 1503.9H-2887.4C-2886.6 1503.9-2885.9 1504.5-2885.8 1505.2-2885.7 1505.8-2886.1 1506.5-2886.7 1506.8-2887 1507-2887.4 1507-2887.7 1507H-2903.8C-2904.2 1507-2904.6 1507-2904.9 1506.9-2905.5 1506.7-2905.9 1506.1-2905.8 1505.4-2905.9 1504.8-2905.4 1504-2904.7 1503.9" fill="#fffafe" data-fill-palette-color="accent"></path><path d="M-2911.6 1512.8C-2911.1 1512.7-2910.5 1512.8-2910.2 1513.2-2909.8 1513.6-2909.7 1514.1-2909.8 1514.6S-2910.3 1515.5-2910.7 1515.7C-2911.2 1515.9-2911.8 1515.8-2912.3 1515.5-2912.8 1515.1-2913 1514.5-2912.8 1513.9-2912.7 1513.3-2912.2 1512.9-2911.6 1512.8" fill="#fffafe" data-fill-palette-color="accent"></path><path d="M-2904.5 1513.1H-2887.7C-2887.4 1513.1-2887 1513.1-2886.7 1513.3-2886.1 1513.6-2885.7 1514.3-2885.9 1515-2886 1515.7-2886.7 1516.3-2887.4 1516.2H-2904.3C-2904.8 1516.2-2905.3 1515.9-2905.6 1515.5S-2906 1514.5-2905.7 1514C-2905.5 1513.5-2905 1513.1-2904.5 1513.1" fill="#fffafe" data-fill-palette-color="accent"></path></g></svg></g></svg></g></svg></g></svg></g><g></g></svg></g></svg></g></svg></g><defs></defs></svg><rect width="395.52" height="247.2" fill="none" stroke="none" visibility="hidden"></rect></g></svg></g></svg>